<svg width="31" height="31" viewBox="0 0 31 31" fill="none" xmlns="http://www.w3.org/2000/svg">
<path d="M10.7428 3.90215C10.7428 3.38653 11.225 2.96465 11.8143 2.96465C12.4035 2.96465 12.8857 3.38653 12.8857 3.90215V11.8709C12.8857 12.4744 13.3276 13.0135 13.9838 13.2068C14.6401 13.4002 15.3633 13.201 15.7785 12.7205C15.9793 12.492 16.2874 12.3455 16.6356 12.3455C17.2248 12.3455 17.707 12.7674 17.707 13.283V13.7518C17.707 14.3553 18.1489 14.8943 18.8052 15.0877C19.4614 15.2811 20.1846 15.0818 20.5998 14.6014C20.8007 14.3729 21.1087 14.2264 21.4569 14.2264C22.0462 14.2264 22.5283 14.6482 22.5283 15.1639C22.5283 15.6971 22.8698 16.1834 23.4189 16.4236C23.968 16.6639 24.6175 16.6111 25.0997 16.2889C25.2805 16.1717 25.5015 16.1014 25.7425 16.1014C26.3318 16.1014 26.8139 16.5232 26.8139 17.0389V22.6639V23.1326C26.8139 25.4647 24.6577 27.3514 21.9926 27.3514H18.2427H14.245H14.1847C11.6803 27.3514 9.33663 26.2557 7.9438 24.4275L3.42381 18.4861C3.09569 18.0525 3.22962 17.4725 3.71845 17.1854C4.20728 16.8982 4.8769 17.0154 5.20502 17.4432L7.79648 20.8475C8.19156 21.3631 8.92146 21.5916 9.59778 21.4158C10.2741 21.24 10.7362 20.6893 10.7362 20.0682V18.9022V3.90215H10.7428ZM11.8143 0.152153C9.45046 0.152153 7.52863 1.83379 7.52863 3.90215V15.4861C6.13581 14.0975 3.74523 13.7928 1.93724 14.8416C-0.0314699 15.9959 -0.567173 18.3221 0.751995 20.0447L5.27199 25.9803C7.26078 28.5877 10.6022 30.1522 14.1847 30.1522H14.245H18.2427H21.9926C26.4322 30.1522 30.0281 27.0057 30.0281 23.1209V22.6522V17.0272C30.0281 14.9588 28.1063 13.2772 25.7425 13.2772C25.555 13.2772 25.3675 13.2889 25.1867 13.3064C24.4501 12.1697 23.0573 11.4022 21.4569 11.4022C21.0953 11.4022 20.7538 11.4432 20.419 11.5135C19.6958 10.3299 18.2762 9.52715 16.6356 9.52715C16.4548 9.52715 16.274 9.53887 16.0999 9.55645V3.90215C16.0999 1.83379 14.178 0.152153 11.8143 0.152153ZM15.0285 17.9647C15.0285 17.449 14.5463 17.0272 13.9571 17.0272C13.3678 17.0272 12.8857 17.449 12.8857 17.9647V23.5897C12.8857 24.1053 13.3678 24.5272 13.9571 24.5272C14.5463 24.5272 15.0285 24.1053 15.0285 23.5897V17.9647ZM18.2427 17.0272C17.6534 17.0272 17.1713 17.449 17.1713 17.9647V23.5897C17.1713 24.1053 17.6534 24.5272 18.2427 24.5272C18.832 24.5272 19.3141 24.1053 19.3141 23.5897V17.9647C19.3141 17.449 18.832 17.0272 18.2427 17.0272ZM23.5997 17.9647C23.5997 17.449 23.1176 17.0272 22.5283 17.0272C21.939 17.0272 21.4569 17.449 21.4569 17.9647V23.5897C21.4569 24.1053 21.939 24.5272 22.5283 24.5272C23.1176 24.5272 23.5997 24.1053 23.5997 23.5897V17.9647Z" fill="black"/>
</svg>
